<?xml version="1.0" encoding="UTF-8"?>
<svg version="1.1" xmlns="http://www.w3.org/2000/svg" width="512" height="512">
<path d="M0 0 C1.26869431 -0.00350464 1.26869431 -0.00350464 2.5630188 -0.00708008 C18.0256117 -0.02310368 33.11457346 1.08757524 48.4375 3.25 C48.4375 3.91 48.4375 4.57 48.4375 5.25 C49.45070313 5.22292969 50.46390625 5.19585938 51.5078125 5.16796875 C60.04685827 5.34621921 68.56252675 7.70380346 76.5703125 10.6015625 C78.50599998 11.2737887 80.44391598 11.78040021 82.4375 12.25 C82.4375 12.91 82.4375 13.57 82.4375 14.25 C83.7678125 14.3428125 83.7678125 14.3428125 85.125 14.4375 C91.19869391 15.29989062 96.80244961 17.93252518 102.4375 20.25 C103.21222656 20.559375 103.98695313 20.86875 104.78515625 21.1875 C112.00676199 24.21112558 118.70169805 28.28824209 125.4375 32.25 C126.40171875 32.78496094 127.3659375 33.31992187 128.359375 33.87109375 C129.38804687 34.55365234 129.38804687 34.55365234 130.4375 35.25 C130.4375 35.91 130.4375 36.57 130.4375 37.25 C131.16324219 37.35441406 131.88898438 37.45882812 132.63671875 37.56640625 C135.69734191 38.31342027 137.65221478 39.42548648 140.25 41.1875 C141.04019531 41.71214844 141.83039063 42.23679688 142.64453125 42.77734375 C143.23621094 43.26332031 143.82789063 43.74929687 144.4375 44.25 C144.4375 44.91 144.4375 45.57 144.4375 46.25 C145.17484375 46.51425781 145.9121875 46.77851562 146.671875 47.05078125 C149.42745248 48.24564324 151.36180307 49.55540823 153.6875 51.4375 C156.0546064 53.33907548 158.41453198 55.23277398 160.84375 57.0546875 C165.37060725 60.44983043 168.85337954 63.83877481 172.4375 68.25 C173.71082383 69.39571995 175.00423138 70.51935042 176.3125 71.625 C179.85257478 74.63839698 182.86088016 77.8802637 185.859375 81.42578125 C187.51222329 83.396812 187.51222329 83.396812 189.875 85.5625 C200.4375 96.6402439 200.4375 96.6402439 200.4375 101.25 C201.4275 101.58 202.4175 101.91 203.4375 102.25 C205.04296875 104.2109375 205.04296875 104.2109375 206.625 106.625 C207.15480469 107.41648437 207.68460937 108.20796875 208.23046875 109.0234375 C209.4375 111.25 209.4375 111.25 209.4375 114.25 C210.0975 114.25 210.7575 114.25 211.4375 114.25 C211.85644531 115.12011719 212.27539062 115.99023438 212.70703125 116.88671875 C214.35414303 120.08799018 216.17235878 123.04046095 218.125 126.0625 C228.37616075 142.39894458 235.15383067 160.77917264 240.4375 179.25 C240.788125 180.46558594 241.13875 181.68117187 241.5 182.93359375 C243.52379202 190.20287613 245.06868895 197.3512833 246.04296875 204.8359375 C246.18724218 207.19434182 246.18724218 207.19434182 247.4375 208.25 C251.23920494 233.89069612 251.48275863 262.62018622 247.4375 288.25 C247.1075 288.58 246.7775 288.91 246.4375 289.25 C246.14106376 291.20775879 245.85032364 293.16654425 245.58789062 295.12915039 C244.16923306 305.60815061 241.50161938 315.27959077 238.09814453 325.27050781 C237.27987686 327.72228692 236.57080595 330.19850272 235.875 332.6875 C230.78103561 349.76553092 222.05718172 366.06767715 212.0859375 380.734375 C210.79484467 382.70466833 209.56141952 384.68340003 208.3515625 386.703125 C207.81378174 387.59777466 207.81378174 387.59777466 207.26513672 388.51049805 C206.22821895 390.24441061 205.19986711 391.98343704 204.171875 393.72265625 C203.59953125 394.55667969 203.0271875 395.39070313 202.4375 396.25 C201.7775 396.25 201.1175 396.25 200.4375 396.25 C200.169375 397.054375 199.90125 397.85875 199.625 398.6875 C199.233125 399.533125 198.84125 400.37875 198.4375 401.25 C197.4475 401.58 196.4575 401.91 195.4375 402.25 C194.74585636 403.90645745 194.08378344 405.57532393 193.4375 407.25 C189.02454328 413.45743705 184.04881993 418.86614319 178.19140625 423.71484375 C176.17717307 425.47785854 174.62250519 427.49683688 172.96484375 429.58984375 C169.25530356 433.62195265 164.72865056 436.86625509 160.4375 440.25 C159.56480469 440.95382812 158.69210937 441.65765625 157.79296875 442.3828125 C151.69420547 447.25 151.69420547 447.25 149.4375 447.25 C149.1075 448.24 148.7775 449.23 148.4375 450.25 C146.63671875 451.65234375 146.63671875 451.65234375 144.125 453.1875 C143.13242187 453.7959375 142.13984375 454.404375 141.1171875 455.03125 C140.54323242 455.37671875 139.96927734 455.7221875 139.37792969 456.078125 C137.18368534 457.40328515 135.00242976 458.74871889 132.8203125 460.09375 C118.84841018 468.65148894 104.7332199 476.29452362 89.4375 482.25 C88.53773438 482.60835938 87.63796875 482.96671875 86.7109375 483.3359375 C79.74839228 486.00457875 72.71499046 487.67717788 65.4375 489.25 C63.14531957 489.78948841 60.85364158 490.33111662 58.5625 490.875 C55.1098604 491.67755061 51.70264462 492.41587907 48.1875 492.875 C45.53104906 492.95475652 45.53104906 492.95475652 44.4375 494.25 C31.23757132 496.65668467 17.86987669 496.5594801 4.49975586 496.51074219 C1.00942575 496.50002893 -2.48038862 496.51069107 -5.97070312 496.5234375 C-18.57353276 496.53103246 -31.10703193 496.36398797 -43.5625 494.25 C-43.8925 493.92 -44.2225 493.59 -44.5625 493.25 C-45.86828558 492.93165655 -47.18636925 492.66333838 -48.5078125 492.41796875 C-49.32934814 492.26175049 -50.15088379 492.10553223 -50.99731445 491.94458008 C-51.88507568 491.77724365 -52.77283691 491.60990723 -53.6875 491.4375 C-78.73344264 486.51053802 -104.50196264 478.44153501 -125.58984375 463.5703125 C-128.75569157 461.45138861 -132.1221873 459.87632964 -135.5625 458.25 C-135.5625 457.59 -135.5625 456.93 -135.5625 456.25 C-136.531875 455.981875 -137.50125 455.71375 -138.5 455.4375 C-139.510625 455.045625 -140.52125 454.65375 -141.5625 454.25 C-142.0575 452.765 -142.0575 452.765 -142.5625 451.25 C-144.45605412 450.66443103 -144.45605412 450.66443103 -146.5625 450.25 C-148.88918935 448.6567236 -151.09832731 447.0473408 -153.3125 445.3125 C-153.91449219 444.85681641 -154.51648438 444.40113281 -155.13671875 443.93164062 C-156.65395961 442.75672508 -158.11366855 441.50830593 -159.5625 440.25 C-159.5625 439.59 -159.5625 438.93 -159.5625 438.25 C-160.8825 437.59 -162.2025 436.93 -163.5625 436.25 C-163.5625 435.59 -163.5625 434.93 -163.5625 434.25 C-164.30741699 433.99259033 -165.05233398 433.73518066 -165.81982422 433.4699707 C-168.67399226 432.20040708 -170.2559825 430.93024025 -172.4453125 428.73046875 C-173.48365234 427.69116211 -173.48365234 427.69116211 -174.54296875 426.63085938 C-175.60451172 425.54514648 -175.60451172 425.54514648 -176.6875 424.4375 C-177.40292969 423.72529297 -178.11835938 423.01308594 -178.85546875 422.27929688 C-182.29877869 418.80058842 -185.22462192 415.59063371 -187.5625 411.25 C-188.284375 410.528125 -189.00625 409.80625 -189.75 409.0625 C-193.72708753 405.08541247 -197.09075864 400.66732499 -200.5625 396.25 C-201.25859375 395.39535156 -201.9546875 394.54070312 -202.671875 393.66015625 C-205.80168729 389.67029224 -208.7460898 385.35256372 -209.5625 380.25 C-210.2225 380.25 -210.8825 380.25 -211.5625 380.25 C-212.901224 377.91962859 -214.23379836 375.58608328 -215.5625 373.25 C-215.93632812 372.59773438 -216.31015625 371.94546875 -216.6953125 371.2734375 C-222.91367229 360.2780596 -228.26676276 349.13437411 -232.5625 337.25 C-232.92214844 336.26773437 -233.28179687 335.28546875 -233.65234375 334.2734375 C-234.29579754 332.51061693 -234.93577059 330.7465168 -235.5703125 328.98046875 C-236.12039146 327.46666877 -236.68243717 325.95652134 -237.29174805 324.46557617 C-239.31176797 319.42145474 -240.35564093 314.55480378 -241.125 309.1875 C-241.35141546 307.65434385 -241.58183367 306.12177307 -241.81640625 304.58984375 C-241.91252197 303.92331787 -242.0086377 303.25679199 -242.10766602 302.57006836 C-242.55989547 300.0673798 -242.55989547 300.0673798 -243.54003906 296.96679688 C-247.46394723 282.70280979 -246.90637152 267.28309479 -246.87817383 252.62133789 C-246.87502692 249.21662935 -246.8985215 245.81280431 -246.92382812 242.40820312 C-246.97358182 225.11528379 -246.79399903 206.88608573 -241.5625 190.25 C-241.08599633 188.04551598 -240.6278267 185.83699411 -240.1875 183.625 C-238.73548974 176.68513556 -236.76636949 169.98466716 -234.5625 163.25 C-233.9025 163.25 -233.2425 163.25 -232.5625 163.25 C-232.46453125 162.63253906 -232.3665625 162.01507813 -232.265625 161.37890625 C-232.11609375 160.53199219 -231.9665625 159.68507812 -231.8125 158.8125 C-231.67328125 157.98878906 -231.5340625 157.16507813 -231.390625 156.31640625 C-229.35922887 148.79449134 -225.43858431 141.85832161 -221.8125 135 C-221.37494385 134.17226074 -220.9373877 133.34452148 -220.48657227 132.49169922 C-213.30988194 119.04176948 -205.12226312 106.13945329 -195.5625 94.25 C-194.5725 92.765 -194.5725 92.765 -193.5625 91.25 C-192.9025 91.25 -192.2425 91.25 -191.5625 91.25 C-191.30597656 90.67636719 -191.04945313 90.10273437 -190.78515625 89.51171875 C-186.4487442 81.49004917 -178.25939135 74.8507086 -171.875 68.4375 C-171.15046631 67.70829346 -170.42593262 66.97908691 -169.67944336 66.2277832 C-158.66882657 55.25 -158.66882657 55.25 -155.5625 55.25 C-155.2325 54.26 -154.9025 53.27 -154.5625 52.25 C-152.93503416 51.18739344 -151.26132668 50.19433346 -149.5625 49.25 C-148.01120178 48.1805043 -146.46972687 47.09664398 -144.9375 46 C-139.58935872 42.23181183 -134.10981661 38.71614709 -128.5625 35.25 C-126.94408203 34.22132812 -126.94408203 34.22132812 -125.29296875 33.171875 C-119.85401499 29.75274225 -114.52997171 26.56530474 -108.58984375 24.10546875 C-106.60156367 23.26648351 -104.72175012 22.31674175 -102.8125 21.3125 C-93.95623465 16.84950014 -84.50247016 13.80790446 -75.03125 10.94946289 C-72.34307833 10.13616902 -69.72066951 9.31837004 -67.140625 8.203125 C-63.44944938 6.83850856 -59.68901027 6.30525754 -55.8125 5.6875 C-50.78311549 5.2924688 -50.78311549 5.2924688 -46.5625 3.25 C-44.32053167 2.86634767 -42.06790063 2.54458294 -39.8125 2.25 C-38.58015625 2.085 -37.3478125 1.92 -36.078125 1.75 C-24.05479964 0.352228 -12.08991061 0.01529903 0 0 Z " fill="#03A2E9" transform="translate(254.5625,7.75)"/>
<path d="M0 0 C0 0.66 0 1.32 0 2 C0.598125 2.226875 1.19625 2.45375 1.8125 2.6875 C4.59348403 4.35609042 5.5641916 6.1283832 7 9 C7 9.66 7 10.32 7 11 C7.66 11 8.32 11 9 11 C9.495 14.96 9.495 14.96 10 19 C4.06 19.33 -1.88 19.66 -8 20 C-7.47505129 26.45310058 -7.47505129 26.45310058 -5 32 C1.28885143 34.24339145 8.385262 34.4651914 15 35 C15.33278764 41.81598387 15.24201565 46.92122066 12 53 C9.03 53 6.06 53 3 53 C3 52.34 3 51.68 3 51 C1.87851562 50.90912109 1.87851562 50.90912109 0.734375 50.81640625 C-0.25046875 50.73261719 -1.2353125 50.64882813 -2.25 50.5625 C-3.22453125 50.48128906 -4.1990625 50.40007812 -5.203125 50.31640625 C-7.56461753 50.04925416 -9.71901065 49.64628032 -12 49 C-12 49.66 -12 50.32 -12 51 C-24.87 51 -37.74 51 -51 51 C-51 49.68 -51 48.36 -51 47 C-52.98 47 -54.96 47 -57 47 C-57 45.68 -57 44.36 -57 43 C-48.585 42.505 -48.585 42.505 -40 42 C-40.33 40.246875 -40.66 38.49375 -41 36.6875 C-41.98358891 30.70868458 -42.38177765 25.0462925 -42 19 C-41.95488281 18.13246094 -41.90976563 17.26492188 -41.86328125 16.37109375 C-41.07468631 9.66291605 -38.2370247 6.62327029 -33.09375 2.3984375 C-31 1 -31 1 -29 1 C-29 0.34 -29 -0.32 -29 -1 C-20.14517608 -7.07187926 -8.97861187 -4.5399753 0 0 Z " fill="#0DA4E7" transform="translate(279,312)"/>
<path d="M0 0 C1.64510941 0.00015915 3.29022379 0.00585551 4.93530273 0.01586914 C6.23164894 0.01799156 6.23164894 0.01799156 7.55418396 0.02015686 C10.32578941 0.025773 13.09731528 0.0383282 15.86889648 0.05102539 C17.74324428 0.05603831 19.61759334 0.06060158 21.49194336 0.06469727 C26.09681669 0.07489858 30.70151709 0.09447072 35.30639648 0.11352539 C35.30639648 8.69352539 35.30639648 17.27352539 35.30639648 26.11352539 C42.23639648 26.11352539 49.16639648 26.11352539 56.30639648 26.11352539 C56.30639648 34.03352539 56.30639648 41.95352539 56.30639648 50.11352539 C63.23639648 50.11352539 70.16639648 50.11352539 77.30639648 50.11352539 C77.33322441 53.92607162 77.35315126 57.73843151 77.36889648 61.55102539 C77.37727539 62.63963867 77.3856543 63.72825195 77.39428711 64.84985352 C77.39750977 65.88432617 77.40073242 66.91879883 77.40405273 67.98461914 C77.40928955 68.94295654 77.41452637 69.90129395 77.41992188 70.88867188 C77.30639648 73.11352539 77.30639648 73.11352539 76.30639648 74.11352539 C74.7568409 74.21252062 73.20285976 74.24432063 71.65014648 74.24633789 C70.24055664 74.24827148 70.24055664 74.24827148 68.80249023 74.25024414 C67.31942383 74.24444336 67.31942383 74.24444336 65.80639648 74.23852539 C64.81768555 74.24239258 63.82897461 74.24625977 62.81030273 74.25024414 C61.87057617 74.24895508 60.93084961 74.24766602 59.96264648 74.24633789 C59.09446289 74.24520996 58.2262793 74.24408203 57.33178711 74.24291992 C55.30639648 74.11352539 55.30639648 74.11352539 54.30639648 73.11352539 C54.23326082 70.58303137 54.21392121 68.08047702 54.24389648 65.55102539 C54.2484082 64.84010742 54.25291992 64.12918945 54.25756836 63.39672852 C54.26938784 61.63562526 54.28732385 59.87456503 54.30639648 58.11352539 C53.38600586 57.81704102 52.46561523 57.52055664 51.51733398 57.21508789 C48.27259393 56.10192889 45.34162161 54.70340522 42.30639648 53.11352539 C42.30639648 52.45352539 42.30639648 51.79352539 42.30639648 51.11352539 C41.68764648 50.96915039 41.06889648 50.82477539 40.43139648 50.67602539 C38.30639648 50.11352539 38.30639648 50.11352539 36.30639648 49.11352539 C36.30639648 44.16352539 36.30639648 39.21352539 36.30639648 34.11352539 C35.02764648 33.90727539 33.74889648 33.70102539 32.43139648 33.48852539 C26.66949619 32.23554072 20.53055742 29.33768632 16.30639648 25.11352539 C16.16329361 21.44436769 16.26417987 17.78637098 16.30639648 14.11352539 C9.37639648 14.11352539 2.44639648 14.11352539 -4.69360352 14.11352539 C-4.79125977 4.05493164 -4.79125977 4.05493164 -4.69360352 1.11352539 C-3.69360352 0.11352539 -3.69360352 0.11352539 0 0 Z " fill="#FAFDFE" transform="translate(133.693603515625,202.886474609375)"/>
<path d="M0 0 C12.87 0 25.74 0 39 0 C39 8.25 39 16.5 39 25 C45.6 25 52.2 25 59 25 C59 33.25 59 41.5 59 50 C65.93 50 72.86 50 80 50 C80 57.92 80 65.84 80 74 C72.74 74 65.48 74 58 74 C57.67 69.38 57.34 64.76 57 60 C53.37 58.35 49.74 56.7 46 55 C46 54.34 46 53.68 46 53 C45.05125 52.71125 44.1025 52.4225 43.125 52.125 C40 51 40 51 38 49 C37.85502015 46.41935871 37.81322455 43.95056116 37.875 41.375 C37.88402344 40.66859375 37.89304688 39.9621875 37.90234375 39.234375 C37.92592397 37.48943902 37.96179539 35.74467705 38 34 C35.36 33.67 32.72 33.34 30 33 C30 32.34 30 31.68 30 31 C28.68 30.67 27.36 30.34 26 30 C26 29.34 26 28.68 26 28 C24.02 27.34 22.04 26.68 20 26 C19.97421875 25.24074219 19.9484375 24.48148438 19.921875 23.69921875 C19.86515625 22.70535156 19.8084375 21.71148437 19.75 20.6875 C19.70359375 19.70136719 19.6571875 18.71523437 19.609375 17.69921875 C19.24255522 14.89259499 19.24255522 14.89259499 17.1015625 13.234375 C16.40804687 12.82703125 15.71453125 12.4196875 15 12 C14.21625 11.525625 13.4325 11.05125 12.625 10.5625 C11.75875 10.046875 10.8925 9.53125 10 9 C8.989375 8.319375 7.97875 7.63875 6.9375 6.9375 C4.65361809 5.4311098 2.47561994 4.14259382 0 3 C0 2.01 0 1.02 0 0 Z " fill="#E8F6FD" transform="translate(85,204)"/>
<path d="M0 0 C3.12704615 0.5830086 4.94713123 1.27006788 7.6875 2.6875 C9.36404729 2.40807545 11.03009285 2.06418344 12.6875 1.6875 C17.10411747 1.01377869 19.32230481 0.83235389 23.14453125 3.2265625 C25.7465005 5.29694663 28.22617944 7.45206013 30.6875 9.6875 C32.18626142 11.00141418 33.68615291 12.31404113 35.1875 13.625 C35.8165625 14.19089844 36.445625 14.75679687 37.09375 15.33984375 C38.66094191 16.77256729 38.66094191 16.77256729 40.6875 17.6875 C40.6875 12.4075 40.6875 7.1275 40.6875 1.6875 C43.3275 1.6875 45.9675 1.6875 48.6875 1.6875 C48.6875 10.9275 48.6875 20.1675 48.6875 29.6875 C38.52260638 29.6875 38.52260638 29.6875 35.125 27.1875 C34.38894531 26.64738281 33.65289062 26.10726562 32.89453125 25.55078125 C29.86436985 22.99257419 27.10684098 20.23308439 24.4140625 17.32421875 C22.68116347 15.45029355 22.68116347 15.45029355 19.6875 14.6875 C19.69910156 15.68652344 19.71070313 16.68554688 19.72265625 17.71484375 C19.73167969 19.00519531 19.74070312 20.29554688 19.75 21.625 C19.76160156 22.91277344 19.77320313 24.20054687 19.78515625 25.52734375 C19.6875 28.6875 19.6875 28.6875 18.6875 29.6875 C17.1987814 29.77419432 15.706055 29.79453494 14.21484375 29.78515625 C13.31572266 29.78193359 12.41660156 29.77871094 11.49023438 29.77539062 C10.54470703 29.76701172 9.59917969 29.75863281 8.625 29.75 C7.67560547 29.74548828 6.72621094 29.74097656 5.74804688 29.73632812 C3.39446935 29.7245011 1.04101523 29.70802025 -1.3125 29.6875 C-1.3125 28.3675 -1.3125 27.0475 -1.3125 25.6875 C-3.56321906 25.7747605 -5.81313388 25.88294115 -8.0625 26 C-9.31546875 26.05800781 -10.5684375 26.11601562 -11.859375 26.17578125 C-15.48541403 26.71312414 -16.53097738 27.50864061 -19.3125 29.6875 C-21.890625 29.98046875 -21.890625 29.98046875 -24.5625 29.875 C-25.45453125 29.84792969 -26.3465625 29.82085937 -27.265625 29.79296875 C-27.94109375 29.75816406 -28.6165625 29.72335938 -29.3125 29.6875 C-28.72352066 26.29667514 -27.61341895 24.58605544 -25.25 22.11328125 C-24.62230713 21.44941406 -23.99461426 20.78554687 -23.34790039 20.1015625 C-22.67621826 19.40804687 -22.00453613 18.71453125 -21.3125 18 C-20.62986084 17.28972656 -19.94722168 16.57945312 -19.24389648 15.84765625 C-17.8850541 14.4358385 -16.52369605 13.02643712 -15.15966797 11.61962891 C-13.5996354 9.98784226 -12.0876357 8.33201261 -10.59765625 6.63671875 C-4.74031494 0.18231981 -4.74031494 0.18231981 0 0 Z " fill="#F6FBFE" transform="translate(321.3125,217.3125)"/>
<path d="M0 0 C0 0.66 0 1.32 0 2 C0.598125 2.226875 1.19625 2.45375 1.8125 2.6875 C4.59348403 4.35609042 5.5641916 6.1283832 7 9 C7 9.66 7 10.32 7 11 C7.66 11 8.32 11 9 11 C9.495 14.96 9.495 14.96 10 19 C4.06 19.33 -1.88 19.66 -8 20 C-7.47505129 26.45310058 -7.47505129 26.45310058 -5 32 C1.28885143 34.24339145 8.385262 34.4651914 15 35 C15.33278764 41.81598387 15.24201565 46.92122066 12 53 C9.03 53 6.06 53 3 53 C3 52.34 3 51.68 3 51 C1.87851562 50.90912109 1.87851562 50.90912109 0.734375 50.81640625 C-0.25046875 50.73261719 -1.2353125 50.64882813 -2.25 50.5625 C-3.22453125 50.48128906 -4.1990625 50.40007812 -5.203125 50.31640625 C-7.56461753 50.04925416 -9.71901065 49.64628032 -12 49 C-12 49.66 -12 50.32 -12 51 C-24.87 51 -37.74 51 -51 51 C-51 49.68 -51 48.36 -51 47 C-52.98 47 -54.96 47 -57 47 C-57 45.68 -57 44.36 -57 43 C-48.585 42.505 -48.585 42.505 -40 42 C-40.33 40.246875 -40.66 38.49375 -41 36.6875 C-41.98358891 30.70868458 -42.38177765 25.0462925 -42 19 C-41.95488281 18.13246094 -41.90976563 17.26492188 -41.86328125 16.37109375 C-41.07468631 9.66291605 -38.2370247 6.62327029 -33.09375 2.3984375 C-31 1 -31 1 -29 1 C-29 0.34 -29 -0.32 -29 -1 C-20.14517608 -7.07187926 -8.97861187 -4.5399753 0 0 Z M-35.625 9.8671875 C-38.73871491 14.69698393 -39.31727896 18.70580105 -39.375 24.4375 C-39.40335938 25.71496094 -39.43171875 26.99242187 -39.4609375 28.30859375 C-38.92220907 32.62298671 -37.8109254 34.71165573 -35 38 C-32.87477308 39.25264253 -32.87477308 39.25264253 -30.5625 39.75 C-28.12975878 40.41001327 -25.85041777 41.06162035 -23.515625 42.0234375 C-21.02863015 42.98888581 -18.81799276 43.46903419 -16.1875 43.875 C-12.71037842 44.45688565 -9.30933926 45.15229366 -5.90234375 46.05078125 C-5.19505127 46.23721191 -4.48775879 46.42364258 -3.7590332 46.61572266 C-2.36056861 46.99041709 -0.9644233 47.37390308 0.42895508 47.76708984 C4.30509932 48.80207369 7.13301288 49.1720405 11 48 C11 44.7 11 41.4 11 38 C9.71416016 37.81824219 9.71416016 37.81824219 8.40234375 37.6328125 C4.92833484 37.12365674 1.46386544 36.5739427 -2 36 C-3.14662109 35.81824219 -3.14662109 35.81824219 -4.31640625 35.6328125 C-7.53074193 34.95245635 -8.88117169 34.14949368 -10.9375 31.5625 C-12.39816458 26.66497759 -12.24365831 22.07170265 -12 17 C-8.59648662 14.96780512 -5.6767073 14.63108961 -1.75 14.375 C-0.13351562 14.26285156 -0.13351562 14.26285156 1.515625 14.1484375 C2.33546875 14.09945313 3.1553125 14.05046875 4 14 C3.19929284 9.33041251 3.19929284 9.33041251 0 6 C-0.66 6 -1.32 6 -2 6 C-2 6.99 -2 7.98 -2 9 C-3.65 9 -5.3 9 -7 9 C-6 6 -6 6 -4 4 C-14.49832784 -2.63052285 -28.05395023 0.58537167 -35.625 9.8671875 Z " fill="#CBE9F5" transform="translate(279,312)"/>
<path d="M0 0 C5.53588533 -0.02464775 11.071739 -0.04283496 16.60766602 -0.05493164 C18.4924373 -0.05997244 20.37720465 -0.06680498 22.26196289 -0.07543945 C24.96501636 -0.08751617 27.66801831 -0.09323068 30.37109375 -0.09765625 C31.21900986 -0.10281754 32.06692596 -0.10797882 32.9405365 -0.11329651 C34.96071068 -0.11349195 36.98077934 -0.06206211 39 0 C40.71567792 1.71567792 40.13015825 3.97372735 40.1328125 6.3125 C40.13474609 7.92511719 40.13474609 7.92511719 40.13671875 9.5703125 C40.13285156 10.70210937 40.12898438 11.83390625 40.125 13 C40.13080078 14.69769531 40.13080078 14.69769531 40.13671875 16.4296875 C40.13542969 17.50476563 40.13414062 18.57984375 40.1328125 19.6875 C40.13168457 20.68136719 40.13055664 21.67523438 40.12939453 22.69921875 C40 25 40 25 39 26 C37.65732587 26.08631874 36.31025678 26.10706473 34.96484375 26.09765625 C34.15595703 26.09443359 33.34707031 26.09121094 32.51367188 26.08789062 C31.66353516 26.07951172 30.81339844 26.07113281 29.9375 26.0625 C29.08349609 26.05798828 28.22949219 26.05347656 27.34960938 26.04882812 C25.23304337 26.03700373 23.11651315 26.01906769 21 26 C21 22.04 21 18.08 21 14 C14.07 14 7.14 14 0 14 C0 9.38 0 4.76 0 0 Z " fill="#FDFEFE" transform="translate(175,203)"/>
<path d="M0 0 C1.15177734 -0.00128906 2.30355469 -0.00257813 3.49023438 -0.00390625 C4.70388672 -0.00003906 5.91753906 0.00382813 7.16796875 0.0078125 C8.97104492 0.00201172 8.97104492 0.00201172 10.81054688 -0.00390625 C12.54401367 -0.00197266 12.54401367 -0.00197266 14.3125 0 C15.3744458 0.00112793 16.4363916 0.00225586 17.53051758 0.00341797 C20.00177261 0.11661174 21.98663154 0.49602159 24.35546875 1.1328125 C26.94920789 1.20179492 29.51357072 1.22716002 32.10546875 1.1953125 C32.80285156 1.19080078 33.50023437 1.18628906 34.21875 1.18164062 C35.93102678 1.1699127 37.64325908 1.15197903 39.35546875 1.1328125 C39.35546875 2.1228125 39.35546875 3.1128125 39.35546875 4.1328125 C35.72546875 4.1328125 32.09546875 4.1328125 28.35546875 4.1328125 C28.35546875 4.7928125 28.35546875 5.4528125 28.35546875 6.1328125 C31.98546875 6.1328125 35.61546875 6.1328125 39.35546875 6.1328125 C39.35546875 8.7728125 39.35546875 11.4128125 39.35546875 14.1328125 C36.8970627 14.15972935 34.43894993 14.17961052 31.98046875 14.1953125 C31.28179687 14.20369141 30.583125 14.21207031 29.86328125 14.22070312 C24.58203125 14.24609375 24.58203125 14.24609375 22.35546875 13.1328125 C22.35546875 13.7928125 22.35546875 14.4528125 22.35546875 15.1328125 C19.00132076 15.16211227 15.64720622 15.1797114 12.29296875 15.1953125 C11.35001953 15.20369141 10.40707031 15.21207031 9.43554688 15.22070312 C-3.92457147 15.26725406 -3.92457147 15.26725406 -8.58203125 12.1953125 C-9.26265625 11.5146875 -9.94328125 10.8340625 -10.64453125 10.1328125 C-10.64453125 9.4728125 -10.64453125 8.8128125 -10.64453125 8.1328125 C-13.51873248 10.84885965 -13.51873248 10.84885965 -15.64453125 14.1328125 C-17.95453125 14.1328125 -20.26453125 14.1328125 -22.64453125 14.1328125 C-22.64453125 10.1728125 -22.64453125 6.2128125 -22.64453125 2.1328125 C-20.99453125 1.8028125 -19.34453125 1.4728125 -17.64453125 1.1328125 C-17.31453125 2.1228125 -16.98453125 3.1128125 -16.64453125 4.1328125 C-15.98453125 3.1428125 -15.32453125 2.1528125 -14.64453125 1.1328125 C-12.734375 0.875 -12.734375 0.875 -10.58203125 1.0078125 C-9.28265625 1.0490625 -7.98328125 1.0903125 -6.64453125 1.1328125 C-4.88392441 -0.62779434 -2.38583838 0.00254218 0 0 Z " fill="#99D9F6" transform="translate(372.64453125,252.8671875)"/>
<path d="M0 0 C2.64 0 5.28 0 8 0 C8 3.3 8 6.6 8 10 C14.93 10 21.86 10 29 10 C29 6.7 29 3.4 29 0 C31.97 0 34.94 0 38 0 C38.02892385 4.12498538 38.04677267 8.24994485 38.0625 12.375 C38.07087891 13.550625 38.07925781 14.72625 38.08789062 15.9375 C38.09111328 17.05898437 38.09433594 18.18046875 38.09765625 19.3359375 C38.10289307 20.37282715 38.10812988 21.4097168 38.11352539 22.47802734 C38 25 38 25 37 27 C24.79 27 12.58 27 0 27 C0 24.69 0 22.38 0 20 C9.24 20 18.48 20 28 20 C28 19.01 28 18.02 28 17 C27.29391602 17.01571045 26.58783203 17.0314209 25.86035156 17.04760742 C22.65698271 17.11002097 19.45374188 17.14901111 16.25 17.1875 C15.13882812 17.21263672 14.02765625 17.23777344 12.8828125 17.26367188 C11.81289063 17.27333984 10.74296875 17.28300781 9.640625 17.29296875 C8.65610352 17.3086792 7.67158203 17.32438965 6.65722656 17.34057617 C3.54780915 16.94204279 2.19368252 16.21930965 0 14 C-0.390625 10.64453125 -0.390625 10.64453125 -0.25 6.8125 C-0.21390625 5.54019531 -0.1778125 4.26789063 -0.140625 2.95703125 C-0.09421875 1.98121094 -0.0478125 1.00539062 0 0 Z " fill="#E7F6FD" transform="translate(251,219)"/>
<path d="M0 0 C1.97905083 0.23088926 3.95788011 0.46767615 5.9296875 0.75390625 C8.12911314 1.07170642 8.12911314 1.07170642 10.875 0.875 C11.57625 0.91625 12.2775 0.9575 13 1 C13.66 1.99 14.32 2.98 15 4 C15.66 2.68 16.32 1.36 17 0 C22.67830078 -0.02464705 28.35657069 -0.04283462 34.03491211 -0.05493164 C35.96818585 -0.05997256 37.90145576 -0.06680519 39.8347168 -0.07543945 C42.60726872 -0.08751565 45.37977041 -0.09323057 48.15234375 -0.09765625 C49.45702858 -0.10539818 49.45702858 -0.10539818 50.78807068 -0.11329651 C52.85905814 -0.11349185 54.92994324 -0.06208168 57 0 C58 1 58 1 58.09765625 3.72265625 C58.08605469 4.82480469 58.07445312 5.92695313 58.0625 7.0625 C58.05347656 8.16722656 58.04445313 9.27195312 58.03515625 10.41015625 C58.02355469 11.26480469 58.01195312 12.11945313 58 13 C55.13275314 12.42655063 54.1385485 12.1385485 52 10 C50.01178687 9.60235737 48.01055661 9.26224651 46 9 C46 10.32 46 11.64 46 13 C41.65953597 13.26699415 37.31896191 13.49998738 32.97509766 13.7019043 C31.49837 13.7753032 30.02206943 13.85790493 28.54638672 13.94995117 C26.42200892 14.08084718 24.29828129 14.17832379 22.171875 14.26953125 C20.8940918 14.33760986 19.61630859 14.40568848 18.29980469 14.47583008 C15 14 15 14 12.55175781 11.6081543 C11 9 11 9 11 7 C10.34 7 9.68 7 9 7 C9 7.99 9 8.98 9 10 C8.34 10 7.68 10 7 10 C6.34 11.32 5.68 12.64 5 14 C0.125 13.125 0.125 13.125 -1 12 C-1.09851171 10.16884117 -1.12972629 8.33380067 -1.125 6.5 C-1.12757813 5.4996875 -1.13015625 4.499375 -1.1328125 3.46875 C-1 1 -1 1 0 0 Z " fill="#84D1F4" transform="translate(250,254)"/>
<path d="M0 0 C4.39819046 -0.86393027 6.63743764 -0.85375743 10.46875 1.546875 C13.06610662 3.61514046 15.54231707 5.76786392 18 8 C19.49876142 9.31391418 20.99865291 10.62654113 22.5 11.9375 C23.1290625 12.50339844 23.758125 13.06929687 24.40625 13.65234375 C25.97344191 15.08506729 25.97344191 15.08506729 28 16 C28 10.72 28 5.44 28 0 C30.64 0 33.28 0 36 0 C36 9.24 36 18.48 36 28 C25.5625 28 25.5625 28 22 25 C20.23426194 23.05854529 18.52975687 21.0747887 16.8359375 19.0703125 C13.41705224 15.2149738 9.93430007 11.64476669 5 10 C5 15.61 5 21.22 5 27 C2.69 27 0.38 27 -2 27 C-2.05797565 23.06256167 -2.09358789 19.12523281 -2.125 15.1875 C-2.14175781 14.06794922 -2.15851563 12.94839844 -2.17578125 11.79492188 C-2.18222656 10.72177734 -2.18867188 9.64863281 -2.1953125 8.54296875 C-2.20578613 7.55321045 -2.21625977 6.56345215 -2.22705078 5.54370117 C-2 3 -2 3 0 0 Z " fill="#EDF8FD" transform="translate(334,219)"/>
<path d="M0 0 C2.97 0 5.94 0 9 0 C9 0.66 9 1.32 9 2 C9.99 2.33 10.98 2.66 12 3 C12 11.25 12 19.5 12 28 C9.36 28 6.72 28 4 28 C4 26.68 4 25.36 4 24 C1.56212615 24.1409349 -0.87517853 24.28754542 -3.3125 24.4375 C-4.00279297 24.47681641 -4.69308594 24.51613281 -5.40429688 24.55664062 C-8.47161535 24.74927415 -11.06968152 25.02322717 -14 26 C-14 26.66 -14 27.32 -14 28 C-16.97 28 -19.94 28 -23 28 C-22.54565001 23.24577932 -20.72224899 21.26049672 -17.34375 17.98828125 C-15.93416016 16.60479492 -15.93416016 16.60479492 -14.49609375 15.19335938 C-13.49784892 14.23260193 -12.49914561 13.27232064 -11.5 12.3125 C-9.54821914 10.41667399 -7.60216049 8.5151485 -5.65625 6.61328125 C-4.35397461 5.35704956 -4.35397461 5.35704956 -3.02539062 4.07543945 C-0.95586125 2.16557818 -0.95586125 2.16557818 0 0 Z " fill="#E5F5FC" transform="translate(398,218)"/>
<path d="M0 0 C1.65 0 3.3 0 5 0 C4.54909982 8.26650325 2.09703089 15.82068645 -0.30175781 23.68115234 C-1.45879776 27.52365775 -2.54813018 31.38436617 -3.625 35.25 C-3.83608398 36.00708252 -4.04716797 36.76416504 -4.26464844 37.54418945 C-5.45947897 41.88323634 -6.53377264 46.2281227 -7.5 50.625 C-8.64024218 55.7495367 -10.06525752 60.74082705 -11.625 65.75 C-11.95274414 66.80695068 -11.95274414 66.80695068 -12.28710938 67.88525391 C-13.87028532 72.87028532 -13.87028532 72.87028532 -15 74 C-16.99958364 74.04080783 -19.00045254 74.04254356 -21 74 C-20.72133367 66.9218753 -19.50849043 60.81216011 -17.12109375 54.1484375 C-15.89640539 50.7090688 -14.8143056 47.24213437 -13.75 43.75 C-13.41484375 42.65171875 -13.0796875 41.5534375 -12.734375 40.421875 C-12.49203125 39.62265625 -12.2496875 38.8234375 -12 38 C-11.34 38 -10.68 38 -10 38 C-9.97421875 37.32195312 -9.9484375 36.64390625 -9.921875 35.9453125 C-9.56162824 30.03399074 -8.57135523 25.36748096 -6.1875 19.96875 C-4.60430485 16.01076213 -3.43106353 11.96817081 -2.25 7.875 C-2.02731445 7.10333496 -1.80462891 6.33166992 -1.57519531 5.53662109 C-1.0463119 3.69217133 -0.52260144 1.84623951 0 0 Z " fill="#D6F0FB" transform="translate(241,206)"/>
<path d="M0 0 C3.10423191 0.5787551 5.01132432 1.15825675 7.6875 2.6875 C9.0075 2.6875 10.3275 2.6875 11.6875 2.6875 C11.3575 11.2675 11.0275 19.8475 10.6875 28.6875 C12.9975 28.6875 15.3075 28.6875 17.6875 28.6875 C17.6875 23.0775 17.6875 17.4675 17.6875 11.6875 C23.3125 12.8125 23.3125 12.8125 25.80078125 15.41015625 C26.32607422 15.94833984 26.85136719 16.48652344 27.39257812 17.04101562 C27.92302734 17.60498047 28.45347656 18.16894531 29 18.75 C29.54978516 19.31783203 30.09957031 19.88566406 30.66601562 20.47070312 C32.01577365 21.86740925 33.35291525 23.27628837 34.6875 24.6875 C31.6875 24.6875 31.6875 24.6875 29.53125 22.75390625 C28.7578125 21.92761719 27.984375 21.10132813 27.1875 20.25 C23.94791979 16.6926262 23.94791979 16.6926262 19.6875 14.6875 C19.69910156 15.68652344 19.71070313 16.68554688 19.72265625 17.71484375 C19.73167969 19.00519531 19.74070312 20.29554688 19.75 21.625 C19.76160156 22.91277344 19.77320313 24.20054687 19.78515625 25.52734375 C19.6875 28.6875 19.6875 28.6875 18.6875 29.6875 C17.1987814 29.77419432 15.706055 29.79453494 14.21484375 29.78515625 C13.31572266 29.78193359 12.41660156 29.77871094 11.49023438 29.77539062 C10.54470703 29.76701172 9.59917969 29.75863281 8.625 29.75 C7.67560547 29.74548828 6.72621094 29.74097656 5.74804688 29.73632812 C3.39446935 29.7245011 1.04101523 29.70802025 -1.3125 29.6875 C-1.3125 28.3675 -1.3125 27.0475 -1.3125 25.6875 C-3.56321906 25.7747605 -5.81313388 25.88294115 -8.0625 26 C-9.31546875 26.05800781 -10.5684375 26.11601562 -11.859375 26.17578125 C-15.48541403 26.71312414 -16.53097738 27.50864061 -19.3125 29.6875 C-21.890625 29.98046875 -21.890625 29.98046875 -24.5625 29.875 C-25.45453125 29.84792969 -26.3465625 29.82085937 -27.265625 29.79296875 C-27.94109375 29.75816406 -28.6165625 29.72335938 -29.3125 29.6875 C-28.72352066 26.29667514 -27.61341895 24.58605544 -25.25 22.11328125 C-24.62230713 21.44941406 -23.99461426 20.78554687 -23.34790039 20.1015625 C-22.67621826 19.40804687 -22.00453613 18.71453125 -21.3125 18 C-20.62986084 17.28972656 -19.94722168 16.57945312 -19.24389648 15.84765625 C-17.8850541 14.4358385 -16.52369605 13.02643712 -15.15966797 11.61962891 C-13.5996354 9.98784226 -12.0876357 8.33201261 -10.59765625 6.63671875 C-4.74031494 0.18231981 -4.74031494 0.18231981 0 0 Z M-13.625 11.375 C-14.40939453 12.19162109 -15.19378906 13.00824219 -16.00195312 13.84960938 C-22.84137344 19.99410427 -22.84137344 19.99410427 -26.3125 27.6875 C-23.6725 27.6875 -21.0325 27.6875 -18.3125 27.6875 C-17.6525 26.3675 -16.9925 25.0475 -16.3125 23.6875 C-11.3625 24.0175 -6.4125 24.3475 -1.3125 24.6875 C-0.9825 25.6775 -0.6525 26.6675 -0.3125 27.6875 C1.6675 27.6875 3.6475 27.6875 5.6875 27.6875 C5.7164337 23.89584926 5.73427601 20.10422673 5.75 16.3125 C5.76256836 14.69214844 5.76256836 14.69214844 5.77539062 13.0390625 C5.77861328 12.0078125 5.78183594 10.9765625 5.78515625 9.9140625 C5.79039307 8.96096191 5.79562988 8.00786133 5.80102539 7.02587891 C5.84392599 4.66425594 5.84392599 4.66425594 4.6875 2.6875 C-4.41044268 1.42666846 -7.66078927 4.85808229 -13.625 11.375 Z " fill="#98D9F6" transform="translate(321.3125,217.3125)"/>
<path d="M0 0 C0.8971875 1.175625 0.8971875 1.175625 1.8125 2.375 C4.76573208 5.91887849 7.22094902 7.21438959 11.60546875 8.21875 C12.50716797 8.42886719 13.40886719 8.63898438 14.33789062 8.85546875 C15.27826172 9.06816406 16.21863281 9.28085937 17.1875 9.5 C19.03524459 9.92670099 20.88290216 10.35377895 22.73046875 10.78125 C23.61782715 10.98492187 24.50518555 11.18859375 25.41943359 11.3984375 C28.95751268 12.22320825 32.47876747 13.10624415 36 14 C32.90279155 14.87840996 31.09354597 14.99435406 28 14 C28 14.66 28 15.32 28 16 C15.13 16 2.26 16 -11 16 C-11 14.68 -11 13.36 -11 12 C-12.98 12 -14.96 12 -17 12 C-17 10.68 -17 9.36 -17 8 C-8.585 7.505 -8.585 7.505 0 7 C0 4.69 0 2.38 0 0 Z " fill="#85CEED" transform="translate(239,347)"/>
<path d="M0 0 C0 0.66 0 1.32 0 2 C0.598125 2.226875 1.19625 2.45375 1.8125 2.6875 C4.59348403 4.35609042 5.5641916 6.1283832 7 9 C7 9.66 7 10.32 7 11 C7.66 11 8.32 11 9 11 C9.495 14.96 9.495 14.96 10 19 C4.06 19.33 -1.88 19.66 -8 20 C-7.67 23.63 -7.34 27.26 -7 31 C-8.97179598 28.04230603 -9.36929854 26.83582038 -9.75 23.4375 C-9.89695312 22.25994141 -9.89695312 22.25994141 -10.046875 21.05859375 C-10 19 -10 19 -8 17 C-5.25514407 16.85492305 -2.61519457 16.81347577 0.125 16.875 C0.87910156 16.88402344 1.63320313 16.89304687 2.41015625 16.90234375 C4.27357254 16.9259313 6.13682593 16.96180281 8 17 C7.505 15.02 7.505 15.02 7 13 C6.34 13.66 5.68 14.32 5 15 C2.4635511 15.44049567 -0.00831626 15.78976915 -2.5625 16.0625 C-7.15542254 16.19244312 -7.15542254 16.19244312 -11 18 C-11.33243079 22.73225005 -11.18893275 27.39288558 -10 32 C-12 31 -12 31 -13 28 C-13.19265422 26.17253715 -13.31082233 24.33646871 -13.375 22.5 C-13.44847656 21.06140625 -13.44847656 21.06140625 -13.5234375 19.59375 C-13 17 -13 17 -10.87109375 15.16796875 C-7.57911824 13.82878416 -5.22716972 13.69580759 -1.6875 13.8125 C-0.08455078 13.85310547 -0.08455078 13.85310547 1.55078125 13.89453125 C2.35902344 13.92933594 3.16726563 13.96414063 4 14 C2.58902801 10.11664917 1.53556325 8.23919006 -2 6 C-2 6.99 -2 7.98 -2 9 C-3.65 9 -5.3 9 -7 9 C-6.125 5.125 -6.125 5.125 -5 4 C-11.69038462 0.43179487 -19.79910669 1.74767073 -27 3 C-27 2.34 -27 1.68 -27 1 C-27.66 1 -28.32 1 -29 1 C-29 0.34 -29 -0.32 -29 -1 C-20.14517608 -7.07187926 -8.97861187 -4.5399753 0 0 Z " fill="#8CD2EF" transform="translate(279,312)"/>
<path d="M0 0 C1.32 0 2.64 0 4 0 C4 2.97 4 5.94 4 9 C8.62 9 13.24 9 18 9 C18 8.01 18 7.02 18 6 C19.32 6 20.64 6 22 6 C22.33 6.99 22.66 7.98 23 9 C25.31 9 27.62 9 30 9 C30 7.35 30 5.7 30 4 C24.555 3.505 24.555 3.505 19 3 C19 2.01 19 1.02 19 0 C21.29141286 -0.05384521 23.58318188 -0.09272087 25.875 -0.125 C27.78925781 -0.15980469 27.78925781 -0.15980469 29.7421875 -0.1953125 C33 0 33 0 35 2 C35.1953125 4.3828125 35.1953125 4.3828125 35.125 7.125 C35.10695313 8.03507812 35.08890625 8.94515625 35.0703125 9.8828125 C35.04710937 10.58148438 35.02390625 11.28015625 35 12 C32.05279391 13.47360305 29.06964632 13.14233596 25.83984375 13.1328125 C25.13477188 13.13376923 24.42970001 13.13472595 23.70326233 13.13571167 C22.21289989 13.13639229 20.72253448 13.13454621 19.23217773 13.13037109 C16.94312942 13.12501318 14.65427663 13.13032409 12.36523438 13.13671875 C10.9192704 13.1360581 9.47330654 13.13477722 8.02734375 13.1328125 C6.99455544 13.13584885 6.99455544 13.13584885 5.94090271 13.13894653 C1.11495764 13.11495764 1.11495764 13.11495764 0 12 C-0.07244053 9.98035801 -0.08377188 7.95832876 -0.0625 5.9375 C-0.05347656 4.83277344 -0.04445313 3.72804688 -0.03515625 2.58984375 C-0.02355469 1.73519531 -0.01195312 0.88054687 0 0 Z " fill="#D6F0FB" transform="translate(310,254)"/>
<path d="M0 0 C1.32 0 2.64 0 4 0 C4.33 0.99 4.66 1.98 5 3 C5.66 2.01 6.32 1.02 7 0 C10.19834873 -0.50500243 11.5786377 -0.27331609 14.3125 1.5 C15.1478125 2.2425 15.1478125 2.2425 16 3 C16.33 2.01 16.66 1.02 17 0 C17.99 0 18.98 0 20 0 C20 3.96 20 7.92 20 12 C18.68 12.33 17.36 12.66 16 13 C13.25 11.1875 13.25 11.1875 11 9 C11 8.34 11 7.68 11 7 C8.12579877 9.71604715 8.12579877 9.71604715 6 13 C3.69 13 1.38 13 -1 13 C-1.02686553 11.02090602 -1.04633375 9.04171029 -1.0625 7.0625 C-1.07410156 5.96035156 -1.08570313 4.85820312 -1.09765625 3.72265625 C-1 1 -1 1 0 0 Z " fill="#BAE5F9" transform="translate(351,254)"/>
<path d="M0 0 C5.53588533 -0.02464775 11.071739 -0.04283496 16.60766602 -0.05493164 C18.4924373 -0.05997244 20.37720465 -0.06680498 22.26196289 -0.07543945 C24.96501636 -0.08751617 27.66801831 -0.09323068 30.37109375 -0.09765625 C31.21900986 -0.10281754 32.06692596 -0.10797882 32.9405365 -0.11329651 C34.96071068 -0.11349195 36.98077934 -0.06206211 39 0 C40.71567792 1.71567792 40.13015825 3.97372735 40.1328125 6.3125 C40.13474609 7.92511719 40.13474609 7.92511719 40.13671875 9.5703125 C40.13285156 10.70210937 40.12898438 11.83390625 40.125 13 C40.13080078 14.69769531 40.13080078 14.69769531 40.13671875 16.4296875 C40.13542969 17.50476563 40.13414062 18.57984375 40.1328125 19.6875 C40.13168457 20.68136719 40.13055664 21.67523438 40.12939453 22.69921875 C40 25 40 25 39 26 C37.65732587 26.08631874 36.31025678 26.10706473 34.96484375 26.09765625 C34.15595703 26.09443359 33.34707031 26.09121094 32.51367188 26.08789062 C31.66353516 26.07951172 30.81339844 26.07113281 29.9375 26.0625 C29.08349609 26.05798828 28.22949219 26.05347656 27.34960938 26.04882812 C25.23304337 26.03700373 23.11651315 26.01906769 21 26 C21 22.37 21 18.74 21 15 C21.33 15 21.66 15 22 15 C22 17.97 22 20.94 22 24 C27.28 24 32.56 24 38 24 C38 16.74 38 9.48 38 2 C25.79 2 13.58 2 1 2 C1 5.63 1 9.26 1 13 C7.27 13 13.54 13 20 13 C20 13.33 20 13.66 20 14 C13.4 14 6.8 14 0 14 C0 9.38 0 4.76 0 0 Z " fill="#B3E3F8" transform="translate(175,203)"/>
<path d="M0 0 C0.99 0 1.98 0 3 0 C3.495 5.94 3.495 5.94 4 12 C15.22 12 26.44 12 38 12 C38 12.66 38 13.32 38 14 C34.69601857 15.65199072 31.01277796 15.20606985 27.37890625 15.23828125 C26.52320541 15.246353 25.66750458 15.25442474 24.78587341 15.26274109 C22.97437568 15.27658003 21.16285189 15.28730304 19.35131836 15.29516602 C16.57681235 15.31241104 13.8034881 15.35630111 11.02929688 15.40039062 C9.27084211 15.4105147 7.51237721 15.4190317 5.75390625 15.42578125 C4.50692711 15.45204338 4.50692711 15.45204338 3.23475647 15.47883606 C0.88891602 15.4699707 0.88891602 15.4699707 -3 15 C-4.91040039 13.02026367 -4.91040039 13.02026367 -6 11 C-8.09415804 10.20376178 -8.09415804 10.20376178 -10 10 C-10.33 11.65 -10.66 13.3 -11 15 C-11.969375 14.814375 -12.93875 14.62875 -13.9375 14.4375 C-14.948125 14.293125 -15.95875 14.14875 -17 14 C-17.33 14.33 -17.66 14.66 -18 15 C-20.69654854 15.07319621 -23.36691458 15.09242537 -26.0625 15.0625 C-27.20041992 15.05573242 -27.20041992 15.05573242 -28.36132812 15.04882812 C-30.24091871 15.0370068 -32.12046899 15.01907078 -34 15 C-34 14.34 -34 13.68 -34 13 C-30.91722144 12.8025123 -27.8337715 12.61876668 -24.75 12.4375 C-23.87730469 12.38142578 -23.00460937 12.32535156 -22.10546875 12.26757812 C-21.26113281 12.21923828 -20.41679687 12.17089844 -19.546875 12.12109375 C-18.77182617 12.0739624 -17.99677734 12.02683105 -17.19824219 11.97827148 C-14.96887415 12.00030766 -13.13101433 12.3696103 -11 13 C-11 11.68 -11 10.36 -11 9 C-5.43548387 8.62903226 -5.43548387 8.62903226 -3.3125 10.4375 C-2.879375 10.953125 -2.44625 11.46875 -2 12 C-1.01 12.33 -0.02 12.66 1 13 C0.7525 11.7315625 0.7525 11.7315625 0.5 10.4375 C-0.01329288 6.90861144 -0.07121346 3.56067311 0 0 Z " fill="#34B4EE" transform="translate(307,254)"/>
<path d="M0 0 C4.95 0 9.9 0 15 0 C15 0.99 15 1.98 15 3 C11.37 3 7.74 3 4 3 C4 3.66 4 4.32 4 5 C7.63 5 11.26 5 15 5 C15 7.64 15 10.28 15 13 C10.05 13 5.1 13 0 13 C0 8.71 0 4.42 0 0 Z " fill="#E0F3FC" transform="translate(397,254)"/>
<path d="M0 0 C1.64510941 0.00015915 3.29022379 0.00585551 4.93530273 0.01586914 C6.23164894 0.01799156 6.23164894 0.01799156 7.55418396 0.02015686 C10.32578941 0.025773 13.09731528 0.0383282 15.86889648 0.05102539 C17.74324428 0.05603831 19.61759334 0.06060158 21.49194336 0.06469727 C26.09681669 0.07489858 30.70151709 0.09447072 35.30639648 0.11352539 C35.30639648 8.36352539 35.30639648 16.61352539 35.30639648 25.11352539 C34.64639648 25.11352539 33.98639648 25.11352539 33.30639648 25.11352539 C33.30639648 17.52352539 33.30639648 9.93352539 33.30639648 2.11352539 C21.09639648 2.11352539 8.88639648 2.11352539 -3.69360352 2.11352539 C-3.69360352 5.74352539 -3.69360352 9.37352539 -3.69360352 13.11352539 C2.90639648 13.11352539 9.50639648 13.11352539 16.30639648 13.11352539 C16.30639648 13.44352539 16.30639648 13.77352539 16.30639648 14.11352539 C9.37639648 14.11352539 2.44639648 14.11352539 -4.69360352 14.11352539 C-4.79125977 4.05493164 -4.79125977 4.05493164 -4.69360352 1.11352539 C-3.69360352 0.11352539 -3.69360352 0.11352539 0 0 Z " fill="#B4E3F8" transform="translate(133.693603515625,202.886474609375)"/>
<path d="M0 0 C1.98 0 3.96 0 6 0 C5.67 8.58 5.34 17.16 5 26 C7.31 26 9.62 26 12 26 C12 20.39 12 14.78 12 9 C17.625 10.125 17.625 10.125 20.11328125 12.72265625 C20.63857422 13.26083984 21.16386719 13.79902344 21.70507812 14.35351562 C22.23552734 14.91748047 22.76597656 15.48144531 23.3125 16.0625 C23.86228516 16.63033203 24.41207031 17.19816406 24.97851562 17.78320312 C26.32827365 19.17990925 27.66541525 20.58878837 29 22 C26 22 26 22 23.84375 20.06640625 C23.0703125 19.24011719 22.296875 18.41382813 21.5 17.5625 C18.26041979 14.0051262 18.26041979 14.0051262 14 12 C14.01160156 12.99902344 14.02320313 13.99804688 14.03515625 15.02734375 C14.04417969 16.31769531 14.05320312 17.60804688 14.0625 18.9375 C14.07410156 20.22527344 14.08570313 21.51304687 14.09765625 22.83984375 C14 26 14 26 13 27 C10.98035801 27.07244053 8.95832876 27.08377188 6.9375 27.0625 C5.28041016 27.04896484 5.28041016 27.04896484 3.58984375 27.03515625 C2.73519531 27.02355469 1.88054687 27.01195312 1 27 C1.00523682 26.25314941 1.01047363 25.50629883 1.01586914 24.73681641 C1.03660401 21.36621943 1.04964899 17.99563586 1.0625 14.625 C1.07087891 13.449375 1.07925781 12.27375 1.08789062 11.0625 C1.09111328 9.94101563 1.09433594 8.81953125 1.09765625 7.6640625 C1.10289307 6.62717285 1.10812988 5.5902832 1.11352539 4.52197266 C1.17140815 2.0040332 1.17140815 2.0040332 0 0 Z " fill="#3AB6EE" transform="translate(327,220)"/>
<path d="M0 0 C2.47923801 -0.02685095 4.9581884 -0.04676547 7.4375 -0.0625 C8.14455078 -0.07087891 8.85160156 -0.07925781 9.58007812 -0.08789062 C11.38693559 -0.09653588 13.19387603 -0.05220011 15 0 C16 1 16 1 16.09765625 3.72265625 C16.08605469 4.82480469 16.07445312 5.92695313 16.0625 7.0625 C16.05347656 8.16722656 16.04445313 9.27195312 16.03515625 10.41015625 C16.02355469 11.26480469 16.01195312 12.11945313 16 13 C13.13275314 12.42655063 12.1385485 12.1385485 10 10 C8.01178687 9.60235737 6.01055661 9.26224651 4 9 C4 10.32 4 11.64 4 13 C2.68 13 1.36 13 0 13 C0 10.36 0 7.72 0 5 C3.63 5 7.26 5 11 5 C11 4.34 11 3.68 11 3 C7.37 3 3.74 3 0 3 C0 2.01 0 1.02 0 0 Z " fill="#C2E8FA" transform="translate(292,254)"/>
<path d="M0 0 C1.97599865 0.23053318 3.9517661 0.46580532 5.921875 0.7421875 C8.29533036 1.03663873 10.61093201 1.07465837 13 1 C13.33 2.65 13.66 4.3 14 6 C12.02 6 10.04 6 8 6 C7.34 8.31 6.68 10.62 6 13 C3.625 13.625 3.625 13.625 1 14 C-1 12 -1 12 -1.23046875 9.43359375 C-1.21628906 8.44488281 -1.20210937 7.45617187 -1.1875 6.4375 C-1.18105469 5.44621094 -1.17460937 4.45492188 -1.16796875 3.43359375 C-1 1 -1 1 0 0 Z " fill="#E4F5FC" transform="translate(250,254)"/>
<path d="M0 0 C1.39456452 0.00667256 2.78911118 0.01863093 4.18359375 0.03515625 C4.89451172 0.03966797 5.60542969 0.04417969 6.33789062 0.04882812 C8.09899388 0.06064761 9.86005411 0.07858362 11.62109375 0.09765625 C11.62109375 0.42765625 11.62109375 0.75765625 11.62109375 1.09765625 C7.00109375 1.09765625 2.38109375 1.09765625 -2.37890625 1.09765625 C-2.37890625 2.08765625 -2.37890625 3.07765625 -2.37890625 4.09765625 C-1.59644531 4.08605469 -0.81398438 4.07445312 -0.0078125 4.0625 C1.00410156 4.05347656 2.01601563 4.04445313 3.05859375 4.03515625 C4.06792969 4.02355469 5.07726562 4.01195312 6.1171875 4 C8.62109375 4.09765625 8.62109375 4.09765625 9.62109375 5.09765625 C9.74609375 7.59765625 9.74609375 7.59765625 9.62109375 10.09765625 C8.62109375 11.09765625 8.62109375 11.09765625 5.05859375 11.16015625 C3.92421875 11.13953125 2.78984375 11.11890625 1.62109375 11.09765625 C1.29109375 9.77765625 0.96109375 8.45765625 0.62109375 7.09765625 C-0.69890625 7.09765625 -2.01890625 7.09765625 -3.37890625 7.09765625 C-3.37890625 8.08765625 -3.37890625 9.07765625 -3.37890625 10.09765625 C-7.99890625 10.09765625 -12.61890625 10.09765625 -17.37890625 10.09765625 C-17.37890625 7.12765625 -17.37890625 4.15765625 -17.37890625 1.09765625 C-17.04890625 1.09765625 -16.71890625 1.09765625 -16.37890625 1.09765625 C-16.37890625 3.73765625 -16.37890625 6.37765625 -16.37890625 9.09765625 C-12.41890625 9.09765625 -8.45890625 9.09765625 -4.37890625 9.09765625 C-4.39953125 7.79828125 -4.42015625 6.49890625 -4.44140625 5.16015625 C-4.46290079 3.80599992 -4.45038824 2.45009542 -4.37890625 1.09765625 C-3.37890625 0.09765625 -3.37890625 0.09765625 0 0 Z " fill="#42B9EF" transform="translate(331.37890625,252.90234375)"/>
<path d="M0 0 C1.65 0 3.3 0 5 0 C4.44636539 8.02770189 2.34312056 15.33854067 0 23 C-0.66 23 -1.32 23 -2 23 C-4 21 -4 21 -4.375 17.125 C-4.27595415 11.05348967 -2.13057418 5.62129169 0 0 Z " fill="#D3EFFB" transform="translate(241,206)"/>
<path d="M0 0 C1.32 0 2.64 0 4 0 C4 2.97 4 5.94 4 9 C8.62 9 13.24 9 18 9 C18.33 8.01 18.66 7.02 19 6 C19 8.31 19 10.62 19 13 C16.02077407 13.02683987 13.04178705 13.04676037 10.0625 13.0625 C8.78729492 13.07506836 8.78729492 13.07506836 7.48632812 13.08789062 C6.67744141 13.09111328 5.86855469 13.09433594 5.03515625 13.09765625 C4.2862915 13.10289307 3.53742676 13.10812988 2.76586914 13.11352539 C1 13 1 13 0 12 C-0.07244053 9.98035801 -0.08377188 7.95832876 -0.0625 5.9375 C-0.05347656 4.83277344 -0.04445313 3.72804688 -0.03515625 2.58984375 C-0.02355469 1.73519531 -0.01195312 0.88054687 0 0 Z " fill="#BCE6F9" transform="translate(310,254)"/>
<path d="M0 0 C5.28 0 10.56 0 16 0 C16 3.63 16 7.26 16 11 C12.04 11 8.08 11 4 11 C4 10.34 4 9.68 4 9 C6.97 9 9.94 9 13 9 C12.67 7.35 12.34 5.7 12 4 C8.7 3.67 5.4 3.34 2 3 C2 4.98 2 6.96 2 9 C1.34 8.34 0.68 7.68 0 7 C0 4.69 0 2.38 0 0 Z " fill="#DAF1FC" transform="translate(273,255)"/>
<path d="M0 0 C0.33 0 0.66 0 1 0 C1.33 1.65 1.66 3.3 2 5 C2.33 3.68 2.66 2.36 3 1 C4.64574566 0.97311849 6.29161413 0.95365877 7.9375 0.9375 C8.85402344 0.92589844 9.77054687 0.91429687 10.71484375 0.90234375 C13 1 13 1 14 2 C14.04063832 3.66617115 14.042721 5.33388095 14 7 C11.03 7 8.06 7 5 7 C5 7.66 5 8.32 5 9 C8.96 9 12.92 9 17 9 C17 9.33 17 9.66 17 10 C11.72 10 6.44 10 1 10 C-0.60725635 6.78548731 -0.05748185 3.56387464 0 0 Z " fill="#BDE6F9" transform="translate(272,257)"/>
<path d="M0 0 C0.8146875 0.00257813 1.629375 0.00515625 2.46875 0.0078125 C3.2834375 0.00523437 4.098125 0.00265625 4.9375 0 C6.96875 0.1328125 6.96875 0.1328125 7.96875 1.1328125 C8.11132189 4.46899481 8.01103157 7.79256856 7.96875 11.1328125 C14.23875 11.1328125 20.50875 11.1328125 26.96875 11.1328125 C26.96875 7.8328125 26.96875 4.5328125 26.96875 1.1328125 C29.93875 1.1328125 32.90875 1.1328125 35.96875 1.1328125 C35.96875 1.4628125 35.96875 1.7928125 35.96875 2.1328125 C33.32875 2.1328125 30.68875 2.1328125 27.96875 2.1328125 C27.96875 5.4328125 27.96875 8.7328125 27.96875 12.1328125 C21.03875 12.1328125 14.10875 12.1328125 6.96875 12.1328125 C6.96875 8.8328125 6.96875 5.5328125 6.96875 2.1328125 C4.32875 2.1328125 1.68875 2.1328125 -1.03125 2.1328125 C-1.03125 6.7528125 -1.03125 11.3728125 -1.03125 16.1328125 C-1.69125 16.1328125 -2.35125 16.1328125 -3.03125 16.1328125 C-3.05810095 13.65357449 -3.07801547 11.1746241 -3.09375 8.6953125 C-3.10631836 7.63473633 -3.10631836 7.63473633 -3.11914062 6.55273438 C-3.12778588 4.74587691 -3.08345011 2.93893647 -3.03125 1.1328125 C-2.03125 0.1328125 -2.03125 0.1328125 0 0 Z " fill="#56C0F0" transform="translate(252.03125,216.8671875)"/>
<path d="M0 0 C0.33 0 0.66 0 1 0 C1.02887236 3.81248426 1.04675492 7.6249407 1.0625 11.4375 C1.07087891 12.52611328 1.07925781 13.61472656 1.08789062 14.73632812 C1.09272461 16.28803711 1.09272461 16.28803711 1.09765625 17.87109375 C1.10551147 19.30859985 1.10551147 19.30859985 1.11352539 20.77514648 C1 23 1 23 0 24 C-1.54955559 24.09899523 -3.10353673 24.13079524 -4.65625 24.1328125 C-6.06583984 24.13474609 -6.06583984 24.13474609 -7.50390625 24.13671875 C-8.49261719 24.13285156 -9.48132813 24.12898438 -10.5 24.125 C-11.48871094 24.12886719 -12.47742188 24.13273437 -13.49609375 24.13671875 C-14.43582031 24.13542969 -15.37554687 24.13414062 -16.34375 24.1328125 C-17.21193359 24.13168457 -18.08011719 24.13055664 -18.97460938 24.12939453 C-21 24 -21 24 -22 23 C-22.07313567 20.46950598 -22.09247527 17.96695163 -22.0625 15.4375 C-22.05798828 14.72658203 -22.05347656 14.01566406 -22.04882812 13.28320312 C-22.03700864 11.52209987 -22.01907263 9.76103964 -22 8 C-21.34 8 -20.68 8 -20 8 C-20 12.62 -20 17.24 -20 22 C-13.4 22 -6.8 22 0 22 C0 14.74 0 7.48 0 0 Z " fill="#93D7F5" transform="translate(210,253)"/>
<path d="M0 0 C2.31243792 -0.02685412 4.6249627 -0.04632841 6.9375 -0.0625 C8.22527344 -0.07410156 9.51304687 -0.08570313 10.83984375 -0.09765625 C14 0 14 0 15 1 C15.14310287 4.6691577 15.04221662 8.32715441 15 12 C10.38 12 5.76 12 1 12 C1 11.34 1 10.68 1 10 C4.3 9.67 7.6 9.34 11 9 C11.33 7.02 11.66 5.04 12 3 C8.04 3 4.08 3 0 3 C0 2.01 0 1.02 0 0 Z " fill="#E2F4FC" transform="translate(379,254)"/>
<path d="M0 0 C0 3.51716303 -0.82445585 4.37121748 -3 7 C-1.72125 6.896875 -0.4425 6.79375 0.875 6.6875 C1.95394531 6.60048828 1.95394531 6.60048828 3.0546875 6.51171875 C5.39519216 6.12606964 5.39519216 6.12606964 7 3 C9.62697064 2.77862607 12.00893964 2.71837975 14.625 2.8125 C15.33140625 2.82603516 16.0378125 2.83957031 16.765625 2.85351562 C18.51074128 2.8888896 20.25546608 2.94269779 22 3 C22.33 4.65 22.66 6.3 23 8 C25.31 8 27.62 8 30 8 C30 8.33 30 8.66 30 9 C27.36 9 24.72 9 22 9 C22 7.68 22 6.36 22 5 C19.74928094 5.0872605 17.49936612 5.19544115 15.25 5.3125 C13.99703125 5.37050781 12.7440625 5.42851562 11.453125 5.48828125 C7.82708597 6.02562414 6.78152262 6.82114061 4 9 C1.421875 9.29296875 1.421875 9.29296875 -1.25 9.1875 C-2.14203125 9.16042969 -3.0340625 9.13335937 -3.953125 9.10546875 C-4.62859375 9.07066406 -5.3040625 9.03585938 -6 9 C-5.21007484 4.75074742 -3.15346563 2.91089135 0 0 Z " fill="#80D0F4" transform="translate(298,238)"/>
<path d="M0 0 C5.61 0 11.22 0 17 0 C17 4.95 17 9.9 17 15 C11.72 15 6.44 15 1 15 C1 14.67 1 14.34 1 14 C5.62 14 10.24 14 15 14 C15 11.36 15 8.72 15 6 C11.37 6 7.74 6 4 6 C4 5.34 4 4.68 4 4 C7.63 4 11.26 4 15 4 C15 3.01 15 2.02 15 1 C10.05 1 5.1 1 0 1 C0 0.67 0 0.34 0 0 Z " fill="#58C1F0" transform="translate(397,253)"/>
<path d="M0 0 C0.66 0.33 1.32 0.66 2 1 C2 2.32 2 3.64 2 5 C0.85660156 5.06058594 -0.28679687 5.12117188 -1.46484375 5.18359375 C-2.95574305 5.26798428 -4.44662775 5.35263302 -5.9375 5.4375 C-7.06961914 5.49647461 -7.06961914 5.49647461 -8.22460938 5.55664062 C-11.91944187 5.44038024 -11.91944187 5.44038024 -15 7 C-14.93402402 8.93947056 -14.93402402 8.93947056 -14.625 11.1875 C-14.52574219 11.99445313 -14.42648437 12.80140625 -14.32421875 13.6328125 C-13.94070761 16.43290591 -13.49929199 19.21823034 -13 22 C-16.12067065 19.08066294 -17.83014486 17.21601704 -18.16796875 12.80859375 C-18.17441406 12.02613281 -18.18085938 11.24367188 -18.1875 10.4375 C-18.20167969 9.65246094 -18.21585937 8.86742187 -18.23046875 8.05859375 C-18 6 -18 6 -16 4 C-12.77334909 3.4726019 -9.57312831 3.11324825 -6.32226562 2.7890625 C-4.5400309 2.58853948 -2.76810919 2.30059944 -1 2 C-0.67 1.34 -0.34 0.68 0 0 Z " fill="#DFF0F6" transform="translate(285,324)"/>
<path d="M0 0 C5.625 1.125 5.625 1.125 8.11328125 3.72265625 C8.63857422 4.26083984 9.16386719 4.79902344 9.70507812 5.35351562 C10.23552734 5.91748047 10.76597656 6.48144531 11.3125 7.0625 C12.13717773 7.91424805 12.13717773 7.91424805 12.97851562 8.78320312 C14.32827365 10.17990925 15.66541525 11.58878837 17 13 C14 13 14 13 11.84375 11.06640625 C10.68359375 9.82697266 10.68359375 9.82697266 9.5 8.5625 C6.26041979 5.0051262 6.26041979 5.0051262 2 3 C2.01160156 3.99902344 2.02320313 4.99804688 2.03515625 6.02734375 C2.04417969 7.31769531 2.05320312 8.60804688 2.0625 9.9375 C2.07410156 11.22527344 2.08570313 12.51304687 2.09765625 13.83984375 C2 17 2 17 1 18 C-1.67058851 18.14115161 -4.32432238 18.04247107 -7 18 C-7 17.67 -7 17.34 -7 17 C-4.69 17 -2.38 17 0 17 C0 11.39 0 5.78 0 0 Z " fill="#86D2F5" transform="translate(339,229)"/>
<path d="M0 0 C0.66 0 1.32 0 2 0 C2 8.25 2 16.5 2 25 C2.99 25 3.98 25 5 25 C5 25.66 5 26.32 5 27 C7.97 27 10.94 27 14 27 C14 27.33 14 27.66 14 28 C12.04174127 28.02694851 10.08337774 28.04637218 8.125 28.0625 C7.03445313 28.07410156 5.94390625 28.08570313 4.8203125 28.09765625 C2 28 2 28 0 27 C0 18.09 0 9.18 0 0 Z " fill="#48BBEF" transform="translate(370,219)"/>
<path d="M0 0 C1.74023438 0.00966797 1.74023438 0.00966797 3.515625 0.01953125 C4.7221875 0.03628906 5.92875 0.05304688 7.171875 0.0703125 C9.00492187 0.08384766 9.00492187 0.08384766 10.875 0.09765625 C13.89082282 0.12121737 16.90624992 0.15411544 19.921875 0.1953125 C19.921875 0.5253125 19.921875 0.8553125 19.921875 1.1953125 C13.651875 1.5253125 7.381875 1.8553125 0.921875 2.1953125 C0.591875 6.1553125 0.261875 10.1153125 -0.078125 14.1953125 C-1.068125 13.8653125 -2.058125 13.5353125 -3.078125 13.1953125 C-2.748125 9.2353125 -2.418125 5.2753125 -2.078125 1.1953125 C-5.19597613 1.84175911 -5.19597613 1.84175911 -6.078125 4.1953125 C-7.398125 3.5353125 -8.718125 2.8753125 -10.078125 2.1953125 C-6.64444644 0.10178274 -3.98448907 -0.03906362 0 0 Z " fill="#50BEF0" transform="translate(373.078125,252.8046875)"/>
<path d="M0 0 C-1 3 -1 3 -3.8125 5.1875 C-7.53867795 8.11456991 -9.1872425 11.70269839 -11 16 C-11.99 15.34 -12.98 14.68 -14 14 C-13.00816893 7.9250347 -10.6837114 5.275834 -6.0703125 1.28515625 C-4 0 -4 0 0 0 Z " fill="#DAEFF7" transform="translate(252,313)"/>
<path d="M0 0 C3.63 0 7.26 0 11 0 C11 2.64 11 5.28 11 8 C6.05 8 1.1 8 -4 8 C-4 7.67 -4 7.34 -4 7 C0.62 7 5.24 7 10 7 C10 6.34 10 5.68 10 5 C6.7 5 3.4 5 0 5 C0 3.35 0 1.7 0 0 Z " fill="#ACE0F8" transform="translate(401,259)"/>
<path d="M0 0 C0.54527344 0.13277344 1.09054687 0.26554687 1.65234375 0.40234375 C7.09902987 1.67789247 12.43120352 2.46963843 18 3 C18 6.3 18 9.6 18 13 C14.20431539 13.97798721 11.4994001 13.92653069 7.6875 13.0625 C6.80449219 12.86785156 5.92148437 12.67320312 5.01171875 12.47265625 C4.34785156 12.31667969 3.68398438 12.16070312 3 12 C3 11.67 3 11.34 3 11 C7.51617599 10.92345464 11.59085217 10.89771304 16 12 C16.33 9.36 16.66 6.72 17 4 C16.10796875 4.04640625 15.2159375 4.0928125 14.296875 4.140625 C13.12640625 4.17671875 11.9559375 4.2128125 10.75 4.25 C9.00976562 4.31960938 9.00976562 4.31960938 7.234375 4.390625 C3.42333987 3.93035506 2.34488245 2.94851556 0 0 Z " fill="#44B7E9" transform="translate(272,347)"/>
<path d="M0 0 C1.32 0.33 2.64 0.66 4 1 C4 4.63 4 8.26 4 12 C3.34 12 2.68 12 2 12 C2 12.66 2 13.32 2 14 C-4.93 14 -11.86 14 -19 14 C-19 13.67 -19 13.34 -19 13 C-12.73 12.67 -6.46 12.34 0 12 C0 8.04 0 4.08 0 0 Z " fill="#62C5F2" transform="translate(393,254)"/>
<path d="M0 0 C0.99 0 1.98 0 3 0 C3 0.99 3 1.98 3 3 C6.63 3 10.26 3 14 3 C14 3.66 14 4.32 14 5 C10.37 5 6.74 5 3 5 C3 7.31 3 9.62 3 12 C2.01 12 1.02 12 0 12 C0 8.04 0 4.08 0 0 Z " fill="#6DC9F2" transform="translate(289,254)"/>
<path d="M0 0 C3.25696479 0.41755959 4.63443291 0.63443291 7 3 C6.01 4.485 6.01 4.485 5 6 C4.34 6 3.68 6 3 6 C3 4.35 3 2.7 3 1 C2.34 1 1.68 1 1 1 C1 4.3 1 7.6 1 11 C2.98 10.67 4.96 10.34 7 10 C6.34 11.32 5.68 12.64 5 14 C0.125 13.125 0.125 13.125 -1 12 C-1.09851171 10.16884117 -1.12972629 8.33380067 -1.125 6.5 C-1.12757813 5.4996875 -1.13015625 4.499375 -1.1328125 3.46875 C-1 1 -1 1 0 0 Z " fill="#8ED5F5" transform="translate(250,254)"/>
<path d="M0 0 C0.8971875 1.175625 0.8971875 1.175625 1.8125 2.375 C4.91067324 6.09280789 7.33222827 7.24306404 12 8 C11.01 9.485 11.01 9.485 10 11 C10 10.34 10 9.68 10 9 C1.09 9 -7.82 9 -17 9 C-17 8.67 -17 8.34 -17 8 C-8.585 7.505 -8.585 7.505 0 7 C0 4.69 0 2.38 0 0 Z " fill="#45B6E6" transform="translate(239,347)"/>
<path d="M0 0 C0.99 0 1.98 0 3 0 C3.33 3.96 3.66 7.92 4 12 C8.95 12.33 13.9 12.66 19 13 C19 13.33 19 13.66 19 14 C12.07 14 5.14 14 -2 14 C-1.01 13.67 -0.02 13.34 1 13 C0.835 12.154375 0.67 11.30875 0.5 10.4375 C-0.01329288 6.90861144 -0.07121346 3.56067311 0 0 Z " fill="#54BFF0" transform="translate(307,254)"/>
<path d="M0 0 C4.95 0 9.9 0 15 0 C14.67 1.65 14.34 3.3 14 5 C13.01 5.495 13.01 5.495 12 6 C12 5.01 12 4.02 12 3 C8.04 3 4.08 3 0 3 C0 2.01 0 1.02 0 0 Z " fill="#DBF1FC" transform="translate(292,254)"/>
<path d="M0 0 C1.2065625 0.0309375 1.2065625 0.0309375 2.4375 0.0625 C2.08620556 7.33066073 1.36712747 13.38294937 -1.5625 20.0625 C-1.954375 21.0525 -2.34625 22.0425 -2.75 23.0625 C-3.018125 23.7225 -3.28625 24.3825 -3.5625 25.0625 C-4.71732399 21.675533 -4.39066267 19.73211621 -3.25 16.375 C-1.71598368 11.63925237 -0.58387219 6.93365968 0.4375 2.0625 C-0.8825 1.7325 -2.2025 1.4025 -3.5625 1.0625 C-2.5625 0.0625 -2.5625 0.0625 0 0 Z " fill="#50BEF0" transform="translate(245.5625,203.9375)"/>
<path d="M0 0 C2.97 0 5.94 0 9 0 C9.33 1.65 9.66 3.3 10 5 C6.7 5 3.4 5 0 5 C0 3.35 0 1.7 0 0 Z " fill="#4BBCEF" transform="translate(276,258)"/>
<path d="M0 0 C0.33 0 0.66 0 1 0 C1 5.28 1 10.56 1 16 C-4.625 13.75 -4.625 13.75 -7.3125 10.375 C-7.82425781 9.74335938 -8.33601563 9.11171875 -8.86328125 8.4609375 C-9.23839844 7.97882813 -9.61351562 7.49671875 -10 7 C-6.89978679 8.52360906 -3.94837771 10.19821362 -1 12 C-1.01160156 11.21753906 -1.02320313 10.43507812 -1.03515625 9.62890625 C-1.04417969 8.61699219 -1.05320312 7.60507813 -1.0625 6.5625 C-1.07410156 5.55316406 -1.08570313 4.54382813 -1.09765625 3.50390625 C-1 1 -1 1 0 0 Z " fill="#40B8EF" transform="translate(361,219)"/>
<path d="M0 0 C2.64 0 5.28 0 8 0 C8.042721 1.66611905 8.04063832 3.33382885 8 5 C7 6 7 6 3.4375 6.0625 C2.303125 6.041875 1.16875 6.02125 0 6 C0 4.02 0 2.04 0 0 Z " fill="#5CC3F1" transform="translate(333,258)"/>
<path d="M0 0 C4.95 0 9.9 0 15 0 C15 0.99 15 1.98 15 3 C11.04 3 7.08 3 3 3 C2.67 4.98 2.34 6.96 2 9 C1.34 8.34 0.68 7.68 0 7 C0 4.69 0 2.38 0 0 Z " fill="#F3FAFE" transform="translate(273,255)"/>
<path d="M0 0 C0.99 0 1.98 0 3 0 C3 3.96 3 7.92 3 12 C1.02 11.34 -0.96 10.68 -3 10 C-3 9.01 -3 8.02 -3 7 C-2.01 7 -1.02 7 0 7 C0 4.69 0 2.38 0 0 Z " fill="#E9F7FD" transform="translate(267,254)"/>
<path d="M0 0 C1.32 0 2.64 0 4 0 C3.67 2.97 3.34 5.94 3 9 C2.34 9 1.68 9 1 9 C0.67 10.32 0.34 11.64 0 13 C-1.98384711 9.03230578 -1.32630565 4.14470514 0 0 Z " fill="#EBF8FD" transform="translate(242,206)"/>
<path d="M0 0 C0.99 0 1.98 0 3 0 C3 4.95 3 9.9 3 15 C4.98 15.66 6.96 16.32 9 17 C6.70651734 17.81910095 5.30173706 18.06755307 2.90625 17.53125 C1 16 1 16 0.390625 12.3046875 C0.32414708 10.82887763 0.27806121 9.35203983 0.25 7.875 C0.22035156 7.12089844 0.19070312 6.36679688 0.16015625 5.58984375 C0.08942068 3.72714047 0.04245017 1.86356245 0 0 Z " fill="#4DBDEF" transform="translate(167,237)"/>
<path d="M0 0 C0.33 0 0.66 0 1 0 C1.00515625 0.72445312 1.0103125 1.44890625 1.015625 2.1953125 C1.27935433 5.49192911 1.6723461 7.95641605 3 11 C6.72898472 13.7473996 10.65955793 15.42708751 15 17 C13.32421875 17.6796875 13.32421875 17.6796875 11 18 C8.45703125 16.8203125 8.45703125 16.8203125 5.8125 15.125 C4.93207031 14.57070312 4.05164063 14.01640625 3.14453125 13.4453125 C1 12 1 12 0 11 C-0.07226502 9.14712498 -0.0838122 7.29166122 -0.0625 5.4375 C-0.05347656 4.42558594 -0.04445312 3.41367188 -0.03515625 2.37109375 C-0.02355469 1.58863281 -0.01195312 0.80617187 0 0 Z " fill="#95D8F6" transform="translate(150,217)"/>
<path d="M0 0 C2.64 0 5.28 0 8 0 C8 1.65 8 3.3 8 5 C5.36 5 2.72 5 0 5 C0 3.35 0 1.7 0 0 Z " fill="#41B9EF" transform="translate(382,258)"/>
<path d="M0 0 C0.58523437 0.21914063 1.17046875 0.43828125 1.7734375 0.6640625 C-6.4885215 8.14697822 -6.4885215 8.14697822 -11.2265625 10.6640625 C-10.01182628 6.07505901 -7.49631254 3.75991827 -4.078125 0.703125 C-2.2265625 -0.3359375 -2.2265625 -0.3359375 0 0 Z " fill="#3CB5EA" transform="translate(253.2265625,315.3359375)"/>
<path d="M0 0 C2.7885289 -0.22107787 5.34653181 -0.28107535 8.125 -0.1875 C8.87910156 -0.17396484 9.63320313 -0.16042969 10.41015625 -0.14648438 C12.27374127 -0.11109985 14.13695978 -0.05729167 16 0 C16 0.66 16 1.32 16 2 C10.06 2.33 4.12 2.66 -2 3 C-1.34 2.01 -0.68 1.02 0 0 Z " fill="#E2F2F7" transform="translate(255,310)"/>
<path d="M0 0 C0.33 0 0.66 0 1 0 C1 1.98 1 3.96 1 6 C0.01 6 -0.98 6 -2 6 C-2 6.99 -2 7.98 -2 9 C-0.35 9.33 1.3 9.66 3 10 C1.25 10.6875 1.25 10.6875 -1 11 C-3.25 9.6875 -3.25 9.6875 -5 8 C-5 7.34 -5 6.68 -5 6 C-5.66 6 -6.32 6 -7 6 C-7 6.99 -7 7.98 -7 9 C-7.66 9 -8.32 9 -9 9 C-8.67 7.68 -8.34 6.36 -8 5 C-6.02 5 -4.04 5 -2 5 C-1.34 3.35 -0.68 1.7 0 0 Z " fill="#A9DFF7" transform="translate(266,255)"/>
<path d="M0 0 C-0.66 0.66 -1.32 1.32 -2 2 C-0.35 1.67 1.3 1.34 3 1 C2.67 1.99 2.34 2.98 2 4 C-0.97 4 -3.94 4 -7 4 C-7 3.34 -7 2.68 -7 2 C-8.65 2 -10.3 2 -12 2 C-8.15820154 -2.0018734 -5.05897886 -0.92747946 0 0 Z " fill="#A2D9EF" transform="translate(289,361)"/>
<path d="M0 0 C0.99 0 1.98 0 3 0 C3 0.99 3 1.98 3 3 C5.64 3 8.28 3 11 3 C11 3.33 11 3.66 11 4 C7.7 4 4.4 4 1 4 C1 4.66 1 5.32 1 6 C5.29 6 9.58 6 14 6 C14 6.33 14 6.66 14 7 C9.38 7 4.76 7 0 7 C0 4.69 0 2.38 0 0 Z " fill="#BBE5F9" transform="translate(379,260)"/>
<path d="M0 0 C0.66 0 1.32 0 2 0 C2 1.98 2 3.96 2 6 C3.32 5.67 4.64 5.34 6 5 C5.67 6.65 5.34 8.3 5 10 C3.35 10 1.7 10 0 10 C0 6.7 0 3.4 0 0 Z " fill="#F4FBFE" transform="translate(251,255)"/>
<path d="M0 0 C0.33 0 0.66 0 1 0 C1.48736475 6.70126536 0.07708804 11.06561592 -3 17 C-4.56393356 13.02623171 -3.36145292 10.18622097 -2.0625 6.25 C-1.68222656 5.07953125 -1.30195313 3.9090625 -0.91015625 2.703125 C-0.60980469 1.81109375 -0.30945313 0.9190625 0 0 Z " fill="#A4DDF7" transform="translate(229,244)"/>
<path d="M0 0 C5.8022175 -0.36263859 9.63999211 0.74315457 15 3 C15 3.33 15 3.66 15 4 C9.01006953 4.3152595 5.36439644 3.68219822 0 1 C0 0.67 0 0.34 0 0 Z " fill="#DDF0F7" transform="translate(268,358)"/>
<path d="M0 0 C0 3.51716303 -0.82445585 4.37121748 -3 7 C-0.69 7 1.62 7 4 7 C4 7.66 4 8.32 4 9 C0.7 9 -2.6 9 -6 9 C-4.86634892 4.46539569 -3.35806626 3.09975347 0 0 Z " fill="#9BDAF6" transform="translate(298,238)"/>
<path d="M0 0 C1.32 0 2.64 0 4 0 C4 1.98 4 3.96 4 6 C1.69 6 -0.62 6 -3 6 C-2 4 -1 2 0 0 Z " fill="#61C4F1" transform="translate(398,229)"/>
<path d="M0 0 C2.46800047 1.15173355 4.04783565 2.04783565 6 4 C6 5.32 6 6.64 6 8 C3.03 8 0.06 8 -3 8 C-3 7.67 -3 7.34 -3 7 C-0.36 7 2.28 7 5 7 C5 6.34 5 5.68 5 5 C2.03 4.67 -0.94 4.34 -4 4 C-2.68 3.67 -1.36 3.34 0 3 C0 2.01 0 1.02 0 0 Z " fill="#48B8EC" transform="translate(277,318)"/>
<path d="M0 0 C1.58409994 0.11487748 3.16728963 0.24234508 4.75 0.375 C6.07257813 0.47941406 6.07257813 0.47941406 7.421875 0.5859375 C10 1 10 1 14 3 C9.05 3 4.1 3 -1 3 C-0.67 2.01 -0.34 1.02 0 0 Z " fill="#32AEE6" transform="translate(251,357)"/>
<path d="M0 0 C0.66 0 1.32 0 2 0 C2 3.3 2 6.6 2 10 C0.35 9.67 -1.3 9.34 -3 9 C-3 8.01 -3 7.02 -3 6 C-2.01 6 -1.02 6 0 6 C0 4.02 0 2.04 0 0 Z " fill="#F6FCFE" transform="translate(368,255)"/>
<path d="M0 0 C0.99 0 1.98 0 3 0 C3 1.98 3 3.96 3 6 C1.02 6 -0.96 6 -3 6 C-2.42655063 3.13275314 -2.1385485 2.1385485 0 0 Z " fill="#55C0F0" transform="translate(317,229)"/>
<path d="M0 0 C0.33 0.99 0.66 1.98 1 3 C1.66 3.33 2.32 3.66 3 4 C2.01 5.98 1.02 7.96 0 10 C-0.99 9.34 -1.98 8.68 -3 8 C-1.125 1.125 -1.125 1.125 0 0 Z " fill="#B0DEF0" transform="translate(241,319)"/>
<path d="M0 0 C1.38802458 2.77604916 0.74123398 4.47238973 0.1875 7.5 C0.01605469 8.4796875 -0.15539062 9.459375 -0.33203125 10.46875 C-1 13 -1 13 -3 15 C-3.36263859 9.1977825 -2.25684543 5.36000789 0 0 Z " fill="#A8DEF7" transform="translate(233,250)"/>
<path d="M0 0 C2.97 0 5.94 0 9 0 C9 0.33 9 0.66 9 1 C7.35 1.33 5.7 1.66 4 2 C3.67 3.32 3.34 4.64 3 6 C2.01 6 1.02 6 0 6 C0 4.02 0 2.04 0 0 Z " fill="#EEF9FD" transform="translate(292,260)"/>
<path d="M0 0 C4.95 0.99 4.95 0.99 10 2 C10 2.66 10 3.32 10 4 C3.375 4.25 3.375 4.25 0 2 C0 1.34 0 0.68 0 0 Z " fill="#16A7EA" transform="translate(272,321)"/>
<path d="M0 0 C2.64 0 5.28 0 8 0 C8 0.99 8 1.98 8 3 C5.36 3 2.72 3 0 3 C0 2.01 0 1.02 0 0 Z " fill="#09A4EA" transform="translate(277,259)"/>
<path d="M0 0 C0.66 0 1.32 0 2 0 C2 0.66 2 1.32 2 2 C2.66 2.33 3.32 2.66 4 3 C3.67 3.99 3.34 4.98 3 6 C1.35 6 -0.3 6 -2 6 C-1.49396008 3.83125748 -1.00016187 2.00032373 0 0 Z " fill="#99D4EF" transform="translate(274,315)"/>
<path d="M0 0 C0.33 0 0.66 0 1 0 C1 1.65 1 3.3 1 5 C1.66 5 2.32 5 3 5 C3 6.98 3 8.96 3 11 C2.01 11 1.02 11 0 11 C0 7.37 0 3.74 0 0 Z " fill="#91D6F5" transform="translate(289,255)"/>
<path d="M0 0 C0.33 0 0.66 0 1 0 C1.125 7.625 1.125 7.625 0 11 C-0.66 11 -1.32 11 -2 11 C-2.33 11.66 -2.66 12.32 -3 13 C-2.343621 8.51474352 -1.29925791 4.33085971 0 0 Z " fill="#3EB7EE" transform="translate(236,243)"/>
<path d="M0 0 C1.32 0 2.64 0 4 0 C4.66 1.65 5.32 3.3 6 5 C3.03 4.505 3.03 4.505 0 4 C0 2.68 0 1.36 0 0 Z " fill="#F0F9FD" transform="translate(359,255)"/>
<path d="M0 0 C3.63 0 7.26 0 11 0 C11 0.33 11 0.66 11 1 C8.69 1 6.38 1 4 1 C4 2.65 4 4.3 4 6 C3.67 5.01 3.34 4.02 3 3 C2.01 3 1.02 3 0 3 C0 2.01 0 1.02 0 0 Z " fill="#80D0F4" transform="translate(329,257)"/>
<path d="M0 0 C2.31 0 4.62 0 7 0 C7 0.99 7 1.98 7 3 C4.69 3 2.38 3 0 3 C0 2.01 0 1.02 0 0 Z " fill="#0BA5EA" transform="translate(333,259)"/>
<path d="M0 0 C0.99 0 1.98 0 3 0 C3 1.65 3 3.3 3 5 C3.66 5.33 4.32 5.66 5 6 C3.35 6 1.7 6 0 6 C0 4.02 0 2.04 0 0 Z " fill="#EDF8FD" transform="translate(329,260)"/>
<path d="M0 0 C0.33 0 0.66 0 1 0 C0.67 2.97 0.34 5.94 0 9 C-2 7 -2 7 -2.25 4.5 C-2 2 -2 2 0 0 Z " fill="#FAFDFE" transform="translate(243,210)"/>
<path d="M0 0 C2.475 0.99 2.475 0.99 5 2 C4.67 2.99 4.34 3.98 4 5 C1.69 4.34 -0.62 3.68 -3 3 C-2.67 2.34 -2.34 1.68 -2 1 C-1.67 1.33 -1.34 1.66 -1 2 C-0.67 1.34 -0.34 0.68 0 0 Z " fill="#B9E0EF" transform="translate(272,343)"/>
<path d="M0 0 C0 0.99 0 1.98 0 3 C-2.97 2.505 -2.97 2.505 -6 2 C-6 1.34 -6 0.68 -6 0 C-3.50907189 -1.24546405 -2.58919267 -0.7767578 0 0 Z " fill="#B8E0F0" transform="translate(275,312)"/>
<path d="M0 0 C1.98 0 3.96 0 6 0 C6 0.99 6 1.98 6 3 C4.02 3 2.04 3 0 3 C0 2.01 0 1.02 0 0 Z " fill="#06A3EA" transform="translate(383,259)"/>
<path d="M0 0 C1.2065625 0.0309375 1.2065625 0.0309375 2.4375 0.0625 C2.1075 2.0425 1.7775 4.0225 1.4375 6.0625 C1.1075 4.7425 0.7775 3.4225 0.4375 2.0625 C-0.8825 1.7325 -2.2025 1.4025 -3.5625 1.0625 C-2.5625 0.0625 -2.5625 0.0625 0 0 Z " fill="#9AD9F6" transform="translate(245.5625,203.9375)"/>
</svg>
